<?xml version="1.0" encoding="UTF-8"?>
<svg width="74px" height="72px" viewBox="0 0 74 72" version="1.1" xmlns="http://www.w3.org/2000/svg" xmlns:xlink="http://www.w3.org/1999/xlink">
    <title>7-day-delivery@2x</title>
    <g id="Wireframe" stroke="none" stroke-width="1" fill="none" fill-rule="evenodd" stroke-linecap="round" stroke-linejoin="round">
        <g id="redx-C2C-homepage-expand" transform="translate(-533.000000, -745.000000)" stroke-width="3">
            <g id="7-day-delivery" transform="translate(535.000000, 746.000000)">
                <path d="M36.22,27 C34.4935423,24.0086451 33.7191798,20.5623829 34,17.12 C34.5873567,8.15029708 41.780419,1.03181406 50.7557562,0.537971378 C59.7310934,0.0441286944 67.6617188,6.33047334 69.2296159,15.1815895 C70.797513,24.0327056 65.508837,32.6607328 56.91,35.28 L56.91,35.28" id="Path" stroke="#EB2127"></path>
                <path d="M49.29,41.36 L54.23,41.36 L60.88,49.65 L47.66,49.65 L49.29,41.36 Z M44.51,34.92 L56.6,34.92 L69.6,50.21 L68.72,54.4 L67,62.81 L59.73,62.81 M23.24,62.81 L38.38,62.81 L45.4,27 L11.56,27 C10.2991768,27.0109997 9.28444603,28.0391411 9.29,29.3 C9.28999412,29.9011259 9.5294728,30.4774864 9.95547029,30.9016073 C10.3814678,31.3257281 10.95888,31.5626598 11.56,31.56 L15,31.56 C15.8524304,31.5035774 16.6653954,31.9263366 17.1087379,32.656589 C17.5520805,33.3868413 17.5520805,34.3031587 17.1087379,35.033411 C16.6653954,35.7636634 15.8524304,36.1864226 15,36.13 L4.51,36.13 C3.24526792,36.13 2.22,37.1552679 2.22,38.42 C2.22,39.6847321 3.24526792,40.71 4.51,40.71 L20.31,40.71 C20.9172542,40.7073012 21.500272,40.948025 21.9287292,41.3783613 C22.3571864,41.8086977 22.5953563,42.3927634 22.59,43 C22.590012,44.2608371 21.5708251,45.2844942 20.31,45.29 L7.86,45.29 C7.0075696,45.2335774 6.1946046,45.6563366 5.75126207,46.386589 C5.30791953,47.1168413 5.30791953,48.0331587 5.75126207,48.763411 C6.1946046,49.4936634 7.0075696,49.9164226 7.86,49.86 L10.74,49.86 C11.9992092,49.86 13.02,50.8807908 13.02,52.14 C13.02,53.3992092 11.9992092,54.42 10.74,54.42 L2.63,54.42 C1.37079077,54.42 0.35,55.4407908 0.35,56.7 C0.35,57.9592092 1.37079077,58.98 2.63,58.98 L5.16,58.98 C6.06609946,58.980832 6.88571294,59.5181318 7.24787068,60.3487091 C7.61002842,61.1792865 7.44598931,62.1454896 6.83,62.81 L10.55,62.81 M37,63 L46.2690311,63" id="Shape" stroke="#000000"></path>
                <path d="M53.37,56.7799921 C49.8574754,56.7855272 47.0144914,59.6374701 47.0200077,63.1499947 C47.02554,66.6625194 49.8774806,69.5055057 53.3900052,69.4999923 C56.9025298,69.4944629 59.7455185,66.6425246 59.740008,63.13 C59.7373499,61.4432225 59.0647375,59.826584 57.8701304,58.6357275 C56.6755232,57.444871 55.0567775,56.7773457 53.37,56.7799921 L53.37,56.7799921 Z" id="Path" stroke="#000000"></path>
                <path d="M16.9,56.7799685 C13.3874754,56.7855272 10.5444914,59.6374701 10.5500077,63.1499947 C10.55554,66.6625194 13.4074806,69.5055057 16.9200052,69.4999923 C20.4325298,69.4944629 23.2755185,66.6425246 23.270008,63.13 C23.270008,61.4424043 22.5982477,59.8242186 21.4030626,58.6327861 C20.2078774,57.4413535 18.5875873,56.7746847 16.9,56.7799685 Z" id="Path" stroke="#000000"></path>
                <polyline id="Path" stroke="#EB2127" points="48.2 13.27 56.23 13.27 50.08 23.28"></polyline>
            </g>
        </g>
    </g>
</svg>