<?xml version="1.0" encoding="UTF-8"?>
<svg width="72px" height="72px" viewBox="0 0 72 72" version="1.1" xmlns="http://www.w3.org/2000/svg" xmlns:xlink="http://www.w3.org/1999/xlink">
    <title>Group 17@2x</title>
    <g id="Wireframe" stroke="none" stroke-width="1" fill="none" fill-rule="evenodd" stroke-linecap="round" stroke-linejoin="round">
        <g id="redx-C2C-homepage-expand" transform="translate(-834.000000, -745.000000)" stroke-width="3">
            <g id="Group-17" transform="translate(835.000000, 746.000000)">
                <path d="M34.3901,48.9599 L33.7201,49.9299 L23.6601,64.6499 L4.0101,35.8999 C1.7201,32.2299 0.5001,27.9899 0.5001,23.6599 C0.5001,10.8699 10.8701,0.4999 23.6601,0.4999 C27.9901,0.4999 32.2301,1.7199 35.9001,4.0099 C46.7201,10.7499 50.0501,24.9499 43.3701,35.7899" id="Stroke-1" stroke="#000000"></path>
                <path d="M23.6586,32.1777 C18.9546,32.1777 15.1416,28.3647 15.1416,23.6597 C15.1416,18.9557 18.9546,15.1427 23.6586,15.1427 C28.3626,15.1427 32.1766,18.9557 32.1766,23.6597 C32.1766,28.3647 28.3626,32.1777 23.6586,32.1777 Z" id="Stroke-3" stroke="#000000"></path>
                <path d="M65.5283,49.934 C65.5283,58.529 58.5353,65.522 49.9403,65.522 C40.5803,65.522 33.6523,57.407 34.3923,48.914 C34.9143,40.74 41.7423,34.335 49.9403,34.335 C58.7563,34.335 65.5283,41.564 65.5283,49.934 Z" id="Stroke-5" stroke="#EB2127"></path>
                <path d="M54.2114,49.9301 C54.2114,52.2881 52.2934,54.2061 49.9354,54.2061 C47.3674,54.2061 45.4664,51.9801 45.6694,49.6501 C45.8134,47.4081 47.6864,45.6511 49.9354,45.6511 C52.3534,45.6511 54.2114,47.6341 54.2114,49.9301 Z" id="Stroke-7" stroke="#EB2127"></path>
                <line x1="69.5034" y1="49.9281" x2="65.5284" y2="49.9281" id="Stroke-9" stroke="#EB2127"></line>
                <line x1="34.3359" y1="49.9281" x2="30.3609" y2="49.9281" id="Stroke-11" stroke="#EB2127"></line>
                <line x1="49.937" y1="69.5038" x2="49.937" y2="65.5198" id="Stroke-13" stroke="#EB2127"></line>
                <line x1="49.937" y1="34.3363" x2="49.937" y2="30.3523" id="Stroke-15" stroke="#EB2127"></line>
            </g>
        </g>
    </g>
</svg>