<?xml version="1.0" encoding="UTF-8"?>
<svg width="69px" height="72px" viewBox="0 0 69 72" version="1.1" xmlns="http://www.w3.org/2000/svg" xmlns:xlink="http://www.w3.org/1999/xlink">
    <title>Group 11@2x</title>
    <g id="Wireframe" stroke="none" stroke-width="1" fill="none" fill-rule="evenodd" stroke-linecap="round" stroke-linejoin="round">
        <g id="redx-C2C-homepage-expand" transform="translate(-1136.000000, -745.000000)" stroke-width="3">
            <g id="Group-11" transform="translate(1137.000000, 746.000000)">
                <path d="M43.6138,41.3164 L43.6138,64.1444 C43.6138,67.0894 41.2038,69.5004 38.2578,69.5004 L5.8558,69.5004 C2.9098,69.5004 0.4998,67.0894 0.4998,64.1444 L0.4998,5.8564 C0.4998,2.9104 2.9098,0.5004 5.8558,0.5004 L38.2578,0.5004 C41.2038,0.5004 43.6138,2.9104 43.6138,5.8564 L43.6138,8.7124" id="Stroke-1" stroke="#000000"></path>
                <path d="M60.5011,9.8164 L34.9931,9.8164 C31.9121,9.9014 29.2581,12.4704 29.2581,15.6374 L29.2581,31.2154 C29.2581,34.3824 31.8261,37.0364 35.0791,37.0364 L36.7911,37.0364 L36.7911,42.8574 C36.7911,43.5424 37.1331,44.0554 37.7321,44.3124 C37.9031,44.3974 38.1601,44.4834 38.3311,44.4834 C38.7591,44.4834 39.1021,44.3124 39.4441,44.0554 L46.7201,37.0364 L60.5011,37.0364 C63.6681,37.0364 66.3221,34.4684 66.3221,31.2154 L66.3221,15.6374 C66.3221,12.4704 63.7541,9.8164 60.5011,9.8164 Z" id="Stroke-3" stroke="#EB2127"></path>
                <line x1="38.3731" y1="18.3169" x2="57.2061" y2="18.3169" id="Stroke-5" stroke="#EB2127"></line>
                <line x1="38.3731" y1="27.4834" x2="57.2061" y2="27.4834" id="Stroke-7" stroke="#EB2127"></line>
                <line x1="17.6402" y1="62.1504" x2="26.4732" y2="62.1504" id="Stroke-9" stroke="#000000"></line>
            </g>
        </g>
    </g>
</svg>